<?xml version="1.0" standalone="no"?>
<!DOCTYPE svg PUBLIC "-//W3C//DTD SVG 20010904//EN"
 "http://www.w3.org/TR/2001/REC-SVG-20010904/DTD/svg10.dtd">
<svg version="1.0" xmlns="http://www.w3.org/2000/svg"
 width="11511.000000pt" height="11111.000000pt" viewBox="0 0 11511.000000 11111.000000"
 preserveAspectRatio="xMidYMid meet">

<g transform="translate(0.000000,11111.000000) scale(0.100000,-0.100000)"
fill="#000000" stroke="none">
<path d="M56695 102353 c-5782 -99 -11465 -1261 -16787 -3432 -1533 -625
-3107 -1368 -4543 -2143 -5984 -3233 -11166 -7694 -15255 -13133 -2332 -3101
-4287 -6516 -5776 -10087 -2120 -5084 -3306 -10426 -3544 -15958 -31 -725 -35
-968 -35 -2045 0 -1246 13 -1739 70 -2745 321 -5619 1644 -11085 3925 -16225
474 -1069 1097 -2333 1643 -3335 1875 -3444 4116 -6573 6766 -9445 760 -823
1805 -1868 2646 -2646 2278 -2106 4825 -4025 7470 -5631 1568 -952 3239 -1836
4895 -2591 4966 -2263 10261 -3628 15695 -4047 1393 -107 2555 -147 4015 -137
815 6 1083 12 1685 37 5618 238 11041 1453 16191 3629 1579 666 3196 1460
4724 2319 4195 2357 8041 5387 11346 8937 4953 5321 8597 11711 10645 18665
1562 5305 2161 10891 1773 16530 -473 6875 -2471 13554 -5857 19580 -2860
5089 -6647 9603 -11167 13310 -2389 1960 -4940 3663 -7665 5117 -3070 1638
-6327 2934 -9675 3846 -4021 1097 -8205 1648 -12405 1635 -352 -1 -703 -3
-780 -5z m1940 -3563 c1869 -50 3652 -206 5425 -476 5149 -782 10077 -2479
14630 -5037 5270 -2961 9913 -7044 13545 -11912 3365 -4511 5804 -9596 7203
-15020 745 -2885 1185 -5836 1322 -8860 30 -662 35 -955 35 -1940 0 -1116 -10
-1493 -60 -2415 -407 -7375 -2705 -14513 -6683 -20755 -2562 -4019 -5772
-7595 -9497 -10581 -2737 -2193 -5714 -4039 -8880 -5506 -5037 -2334 -10483
-3670 -16035 -3933 -1354 -64 -2837 -64 -4180 1 -6703 320 -13209 2192 -19055
5481 -2674 1505 -5216 3318 -7515 5358 -4676 4149 -8392 9229 -10906 14907
-2059 4650 -3273 9621 -3594 14708 -69 1106 -98 2304 -81 3375 6 346 13 682
16 745 3 63 10 237 15 385 32 827 96 1742 185 2625 790 7802 3689 15216 8414
21515 3564 4752 8086 8745 13231 11682 4845 2765 10133 4552 15653 5288 1570
209 3090 326 4782 368 300 8 1712 5 2030 -3z"/>
<path d="M50131 93795 c-765 -691 -1391 -1261 -1391 -1267 0 -8 4311 -13030
8777 -26513 141 -425 188 -555 194 -540 14 32 8959 27045 8959 27055 0 5 -626
574 -1392 1264 l-1391 1256 -6183 0 -6182 0 -1391 -1255z"/>
<path d="M39777 91415 c-1298 -613 -2361 -1116 -2363 -1118 -3 -2 -96 -1025
-208 -2273 l-204 -2269 41 -55 c88 -117 16239 -21296 16249 -21305 5 -5 1 11
-9 36 -10 26 -2515 6358 -5568 14072 -4024 10171 -5554 14026 -5565 14026 -8
-1 -1076 -502 -2373 -1114z"/>
<path d="M67691 78492 c-3055 -7720 -5561 -14053 -5569 -14072 -8 -19 -10 -30
-4 -25 8 8 16258 21317 16282 21350 4 6 -85 1025 -196 2265 -112 1240 -203
2262 -204 2271 0 11 -686 339 -2368 1133 -1303 614 -2372 1116 -2378 1116 -5
0 -2509 -6317 -5563 -14038z"/>
<path d="M28118 82430 l-1627 -1899 11101 -8868 c6106 -4877 11110 -8874
11121 -8882 18 -13 19 -13 12 0 -8 13 -15662 20807 -15674 20821 -5 5 -3287
729 -3302 728 -2 -1 -736 -855 -1631 -1900z"/>
<path d="M84012 84085 c-887 -134 -1615 -244 -1617 -246 -7 -8 -15712 -21057
-15720 -21068 -9 -16 -1275 -1026 11325 9038 5992 4786 10899 8708 10904 8715
13 18 -3231 3805 -3259 3804 -11 0 -746 -109 -1633 -243z"/>
<path d="M24685 75274 c-1056 -643 -2018 -1500 -2856 -2544 -976 -1214 -1809
-2744 -2444 -4485 -847 -2324 -1374 -5115 -1525 -8075 -36 -715 -50 -1731 -31
-2285 7 -186 13 -341 15 -342 2 -2 1575 1026 3497 2285 l3494 2287 3 6623 c1
3642 -1 6622 -5 6622 -5 0 -71 -39 -148 -86z"/>
<path d="M90570 68741 l0 -6620 73 -49 c218 -147 6920 -4532 6923 -4530 13 13
26 846 21 1328 -41 3702 -678 7221 -1819 10040 -1105 2729 -2680 4790 -4688
6135 -181 122 -465 300 -496 312 -12 4 -14 -1048 -14 -6616z"/>
<path d="M28907 72493 c-8 -12 -74 -429 -101 -633 -145 -1085 -209 -2098 -209
-3280 0 -620 8 -943 38 -1460 190 -3244 997 -6097 2379 -8405 464 -774 976
-1465 1590 -2145 165 -183 675 -695 866 -870 1381 -1265 3021 -2262 4844
-2945 2327 -871 4844 -1196 7201 -930 1570 178 3004 617 4205 1288 548 306
1050 668 1499 1081 198 182 267 254 256 264 -100 89 -4668 3993 -4669 3990 -2
-2 -20 -32 -41 -68 -65 -109 -187 -288 -297 -435 -772 -1034 -1852 -1891
-3043 -2418 -1124 -496 -2380 -731 -3680 -687 -1983 67 -3588 608 -4835 1629
-1485 1216 -2388 3096 -2520 5246 -13 208 -13 717 0 920 42 656 146 1185 344
1746 394 1121 882 2033 1451 2712 191 229 455 480 612 584 l54 37 -23 21 c-13
12 -1317 1063 -2898 2335 -1581 1273 -2907 2340 -2947 2372 -39 32 -74 55 -76
51z"/>
<path d="M83545 70124 c-1622 -1307 -2958 -2383 -2968 -2393 -16 -16 -14 -19
43 -59 174 -123 401 -340 590 -563 565 -667 1051 -1568 1448 -2679 218 -613
323 -1144 363 -1840 13 -230 7 -816 -11 -1025 -78 -917 -276 -1741 -610 -2530
-91 -214 -302 -631 -420 -830 -526 -884 -1186 -1580 -2020 -2131 -963 -636
-2095 -1022 -3435 -1173 -1500 -169 -2904 -11 -4160 469 -1251 477 -2383 1292
-3230 2325 -175 213 -399 527 -508 710 l-28 48 -27 -25 c-15 -14 -1062 -911
-2327 -1993 -1265 -1082 -2304 -1972 -2310 -1976 -16 -15 263 -283 518 -498
1460 -1229 3579 -2006 5962 -2185 533 -40 1292 -52 1785 -27 2528 127 4919
809 7070 2019 1576 886 2956 2048 4060 3417 1944 2412 3110 5639 3410 9440 52
668 73 1209 73 1955 0 1082 -57 2055 -178 3030 -51 412 -120 867 -134 882 -3
3 -1333 -1062 -2956 -2368z"/>
<path d="M57555 61744 c-280 -43 -550 -124 -905 -271 -996 -414 -2536 -1396
-4460 -2844 -541 -408 -855 -652 -855 -666 0 -14 1577 -2003 1588 -2003 4 0
87 62 185 138 815 636 1835 1376 2587 1879 754 503 1481 928 1898 1108 l109
47 56 -23 c176 -69 564 -270 892 -462 916 -535 2310 -1507 3607 -2515 l231
-179 793 1000 c437 549 795 1003 797 1007 9 23 -1190 927 -1906 1439 -2071
1479 -3426 2214 -4323 2345 -126 19 -173 19 -294 0z"/>
<path d="M22595 54350 c-2134 -1430 -3884 -2605 -3889 -2613 -9 -14 250 -4906
260 -4916 3 -3 3879 571 8614 1275 4735 703 8606 1282 8602 1285 -4 4 -72 25
-152 49 -568 164 -1508 508 -2185 798 -2239 960 -4090 2171 -5375 3517 -909
951 -1558 1981 -1917 3043 -30 89 -60 162 -67 161 -6 -1 -1757 -1170 -3891
-2599z"/>
<path d="M88890 56883 c-524 -1599 -1659 -3086 -3345 -4379 -1390 -1066 -3157
-2008 -5105 -2721 -391 -143 -1158 -393 -1206 -393 -7 0 -14 -3 -14 -8 0 -8
17217 -2569 17223 -2561 2 2 64 1108 137 2457 113 2083 131 2456 119 2467 -19
18 -7754 5194 -7772 5201 -11 4 -21 -12 -37 -63z"/>
<path d="M61386 51832 c-26 -247 -35 -953 -16 -1247 50 -758 178 -1417 405
-2084 460 -1349 1306 -2557 2499 -3565 478 -405 1039 -790 1601 -1101 196
-109 583 -299 755 -372 l145 -62 17 -48 c25 -75 65 -264 87 -417 60 -414 46
-893 -39 -1306 -74 -356 -200 -709 -356 -994 -577 -1058 -3539 -5352 -8182
-11865 l-595 -835 -24 30 c-50 63 -1791 2510 -2731 3839 -3152 4457 -5169
7398 -5880 8575 -259 429 -406 789 -496 1218 -118 557 -110 1176 21 1687 32
125 17 110 188 181 163 67 564 266 775 384 1747 975 3095 2388 3816 3997 367
819 572 1633 654 2598 27 315 21 1218 -9 1400 l-6 40 -74 -100 c-188 -254
-511 -643 -789 -950 -194 -213 -794 -812 -1011 -1009 -1947 -1763 -4116 -2881
-6363 -3280 -276 -49 -549 -86 -1203 -161 -2221 -256 -3767 -473 -4100 -576
-86 -26 -97 -45 -37 -58 25 -5 1390 -1739 8648 -10979 4739 -6035 8621 -10969
8625 -10965 4 5 3882 4942 8619 10973 4736 6031 8614 10966 8618 10967 4 1 19
4 35 7 15 4 27 11 27 17 0 83 -1580 314 -4260 624 -311 36 -630 74 -710 86
-2127 298 -4165 1217 -6045 2724 -944 757 -1882 1713 -2513 2562 l-90 122 -6
-57z"/>
<path d="M28463 43247 c-4247 -997 -7725 -1815 -7729 -1819 -6 -6 3916 -8078
3935 -8101 5 -5 6961 7071 11290 11485 134 136 239 248 235 247 -5 0 -3484
-816 -7731 -1812z"/>
<path d="M79400 44864 c107 -109 2701 -2752 5764 -5872 l5570 -5674 57 114
c307 613 3889 7992 3882 7998 -4 4 -3477 820 -7718 1814 -4240 994 -7719 1810
-7730 1813 -11 3 68 -84 175 -193z"/>
<path d="M76046 39586 l-1106 -1464 561 -8588 c308 -4723 561 -8590 563 -8591
5 -5 401 161 601 252 2394 1085 5274 3272 8205 6231 593 598 1380 1435 1380
1467 0 11 -9081 12157 -9090 12157 -5 0 -506 -659 -1114 -1464z"/>
<path d="M33348 34505 c-2301 -3078 -4184 -5601 -4186 -5608 -7 -34 714 -802
1423 -1515 2929 -2950 5785 -5115 8167 -6190 243 -110 588 -255 594 -249 1 1
254 3865 562 8587 522 8003 559 8586 544 8601 -10 9 -568 387 -1242 839 -674
453 -1327 892 -1452 977 l-226 153 -4184 -5595z"/>
<path d="M44782 25263 l3 -6668 65 -22 c413 -138 1917 -587 2750 -822 2935
-825 5085 -1283 6442 -1372 237 -15 717 -7 858 15 328 52 533 160 589 310 30
81 36 155 14 193 -29 52 -10707 15032 -10716 15033 -4 0 -6 -3000 -5 -6667z"/>
<path d="M65280 24443 c-2934 -4116 -5348 -7503 -5363 -7526 -27 -39 -29 -47
-23 -105 20 -224 216 -355 626 -419 95 -15 179 -18 485 -18 370 0 446 4 835
46 1504 162 4047 755 7090 1654 619 183 1676 508 1686 518 2 2 3 3003 2 6669
l-3 6666 -5335 -7485z"/>
</g>
</svg>
